<svg width="302" height="268" viewBox="0 0 302 268" fill="none" xmlns="http://www.w3.org/2000/svg">
<path d="M176.48 96.9653C176.48 96.9653 176.031 72.9211 197.783 72.9211C220.714 72.9211 216.468 56.6502 238.59 57.9782C253.543 58.8769 257.421 74.6587 266.019 76.9905C274.617 79.3224 282.712 82.1521 282.712 96.5101L176.48 96.9653Z" fill="white"/>
<path d="M223.485 216.99C223.485 216.99 223.153 199.252 239.2 199.252C256.119 199.252 252.986 187.248 269.306 188.228C280.337 188.891 283.197 200.534 289.542 202.255C295.887 203.975 301.858 206.063 301.858 216.656L223.485 216.99Z" fill="white"/>
<path d="M0.000627548 135.695C0.000627548 135.695 -0.398397 114.332 18.9272 114.332C39.3012 114.332 35.5281 99.8762 55.1811 101.058C68.464 101.856 71.9096 115.878 79.5501 117.949C87.1906 120.021 94.3813 122.535 94.3813 135.292L0.000627548 135.695Z" fill="white"/>
<path opacity="0.1" d="M176.48 96.9653C176.48 96.9653 176.031 72.9211 197.783 72.9211C220.714 72.9211 216.468 56.6502 238.59 57.9782C253.543 58.8769 257.421 74.6587 266.019 76.9905C274.617 79.3224 282.712 82.1521 282.712 96.5101L176.48 96.9653Z" fill="#367CFF"/>
<path opacity="0.1" d="M223.485 216.99C223.485 216.99 223.153 199.252 239.2 199.252C256.119 199.252 252.986 187.248 269.306 188.228C280.337 188.891 283.197 200.534 289.542 202.255C295.887 203.975 301.858 206.063 301.858 216.656L223.485 216.99Z" fill="#367CFF"/>
<path opacity="0.1" d="M0.000627548 135.695C0.000627548 135.695 -0.398397 114.332 18.9272 114.332C39.3012 114.332 35.5281 99.8762 55.1811 101.058C68.464 101.856 71.9096 115.878 79.5501 117.949C87.1906 120.021 94.3813 122.535 94.3813 135.292L0.000627548 135.695Z" fill="#367CFF"/>
<path d="M226.014 45.1354C225.847 44.8663 225.736 44.5659 225.688 44.2525C225.64 43.9391 225.657 43.6192 225.737 43.3125C225.817 43.0058 225.959 42.7186 226.154 42.4684C226.349 42.2183 226.593 42.0104 226.871 41.8575C227.419 41.5802 228.052 41.5213 228.642 41.6927C229.232 41.8641 229.735 42.253 230.049 42.7808L231.716 45.4563L230.91 36.053C230.737 34.8473 231.291 33.2595 232.656 33.1527C233.753 32.9938 234.647 31.5202 235.961 32.1683C235.973 32.1649 246.276 40.2771 246.438 41.3941L247.073 56.2789C247.762 61.0184 231.646 60.0684 231.646 60.0684L226.014 45.1354Z" fill="#E98862"/>
<g opacity="0.1">
<path opacity="0.1" d="M226.014 45.1354C225.847 44.8663 225.736 44.5659 225.688 44.2525C225.64 43.9391 225.657 43.6192 225.737 43.3125C225.817 43.0058 225.959 42.7186 226.154 42.4684C226.349 42.2183 226.593 42.0104 226.871 41.8575C227.419 41.5802 228.052 41.5213 228.642 41.6927C229.232 41.8641 229.735 42.253 230.049 42.7808L231.716 45.4563L230.91 36.053C230.737 34.8473 231.291 33.2595 232.656 33.1527C233.753 32.9938 234.647 31.5202 235.961 32.1683C235.973 32.1649 246.276 40.2771 246.438 41.3941L247.073 56.2789C247.762 61.0184 231.646 60.0684 231.646 60.0684L226.014 45.1354Z" fill="#0C0C0C"/>
</g>
<path d="M115.873 118.151C115.873 118.151 114.948 132.025 111.824 137.056C102.833 151.546 100.229 167.846 109.233 176.363C118.236 184.879 175.666 184.998 180.017 165.411C183.68 148.92 175.819 147.147 173.907 133.544C173.042 127.389 170.661 114.482 170.661 114.482" fill="#0A0A0A"/>
<path d="M165.152 162.539C165.053 162.526 163.953 180.767 142.747 179.177C128.067 178.078 122.833 162.512 122.494 162.512C124.078 162.175 126.743 161.687 127.446 161.312C129.757 160.071 132.617 158.779 133.362 154.293C133.793 151.709 133.063 138.479 133.288 135.862L155.822 140.888C155.507 146.413 153.303 159.222 161.027 161.489C162.314 161.867 163.699 162.211 165.152 162.539Z" fill="#E98862"/>
<path opacity="0.5" d="M156.139 156.257C155.787 155.12 155.559 153.948 155.462 152.762C155.214 150.055 155.263 147.329 155.609 144.632C151.029 144.014 146.715 142.125 143.156 139.18C142.737 140.724 140.436 147.472 141.073 148.939C142.277 151.713 147.936 156.257 156.139 156.257Z" fill="#0C0C0C"/>
<path d="M153.226 150.573C144.341 151.434 132.846 147.881 130.465 136.057L128.316 125.389C125.935 113.566 130.218 102.731 141.358 100.49C152.498 98.2507 162.755 106.16 165.136 117.983L166.088 122.706C167.001 127.243 169.077 149.041 153.226 150.573Z" fill="#E98862"/>
<path d="M159.545 136.434C156.658 137.9 153.365 138.364 150.185 137.752C150.075 137.731 149.961 137.742 149.857 137.783C149.753 137.825 149.663 137.895 149.597 137.986C149.532 138.076 149.493 138.184 149.487 138.296C149.48 138.408 149.505 138.519 149.56 138.617C150.508 140.286 152.756 143.139 156.614 141.976C159.105 141.225 160.046 138.664 160.395 137.08C160.419 136.97 160.411 136.856 160.372 136.751C160.333 136.646 160.265 136.554 160.176 136.486C160.087 136.418 159.98 136.377 159.868 136.368C159.756 136.359 159.644 136.382 159.545 136.434Z" fill="white"/>
<path d="M159.726 123.604C160.496 123.604 161.121 122.98 161.121 122.21C161.121 121.44 160.496 120.816 159.726 120.816C158.955 120.816 158.331 121.44 158.331 122.21C158.331 122.98 158.955 123.604 159.726 123.604Z" fill="#0C0C0C"/>
<path d="M146.322 125.949C147.092 125.949 147.717 125.325 147.717 124.555C147.717 123.785 147.092 123.161 146.322 123.161C145.552 123.161 144.927 123.785 144.927 124.555C144.927 125.325 145.552 125.949 146.322 125.949Z" fill="#0C0C0C"/>
<path opacity="0.1" d="M147.578 135.08C149.04 134.906 150.122 133.896 149.994 132.824C149.866 131.752 148.577 131.025 147.115 131.199C145.653 131.374 144.571 132.384 144.699 133.455C144.827 134.527 146.116 135.255 147.578 135.08Z" fill="#0C0C0C"/>
<path opacity="0.1" d="M163.027 130.795C163.156 131.866 164.447 132.592 165.909 132.42C166.162 132.39 166.411 132.333 166.652 132.251C166.72 130.975 166.724 129.748 166.686 128.611C166.28 128.51 165.859 128.485 165.444 128.539C163.981 128.711 162.9 129.721 163.027 130.795Z" fill="#0C0C0C"/>
<path opacity="0.5" d="M156.567 134.103L156.589 134.1C157.04 134.006 157.486 133.887 157.924 133.743C158.579 133.525 159.433 133.166 159.315 132.574C159.18 131.9 155.868 125.003 155.492 124.22C155.459 124.152 155.4 124.099 155.328 124.074C155.257 124.049 155.178 124.053 155.109 124.086C155.041 124.119 154.988 124.178 154.963 124.249C154.938 124.321 154.942 124.4 154.975 124.469C156.387 127.406 158.661 132.235 158.753 132.689C158.681 132.9 157.596 133.313 156.476 133.539C156.402 133.552 156.336 133.594 156.292 133.655C156.249 133.716 156.231 133.792 156.243 133.866C156.255 133.941 156.296 134.007 156.356 134.052C156.417 134.096 156.493 134.115 156.567 134.104L156.567 134.103Z" fill="#0C0C0C"/>
<path d="M119.428 129.219L129.415 127.269C136.959 124.117 139.099 110.978 139.099 110.978C139.099 110.978 148.409 119.838 170.661 114.48C170.661 114.48 165.827 83.4381 132.971 92.8607C122.377 95.8988 114.873 106.69 115.989 120.984C116.771 131.001 119.428 129.219 119.428 129.219Z" fill="#0A0A0A"/>
<path d="M131.882 139.521C128.497 140.202 125.023 137.134 124.341 133.75C123.659 130.367 126.029 127.949 129.414 127.269L131.615 129.184L134.792 138.934L131.882 139.521Z" fill="#E98862"/>
<path d="M157.892 118.719C158.739 118.12 159.729 117.757 160.763 117.665C161.281 117.616 161.804 117.645 162.314 117.752C162.829 117.857 163.329 118.026 163.801 118.255L163.816 118.262C163.869 118.285 163.928 118.287 163.982 118.267C164.035 118.247 164.079 118.206 164.103 118.155C164.128 118.103 164.131 118.044 164.112 117.989C164.093 117.935 164.054 117.891 164.003 117.865C163.502 117.601 162.97 117.401 162.419 117.269C161.864 117.134 161.292 117.084 160.722 117.119C159.568 117.183 158.452 117.555 157.491 118.196C157.418 118.245 157.369 118.32 157.352 118.406C157.336 118.492 157.354 118.581 157.403 118.653C157.453 118.725 157.528 118.775 157.614 118.791C157.7 118.807 157.789 118.789 157.861 118.74L157.869 118.734L157.892 118.719Z" fill="#0C0C0C"/>
<path d="M148.769 119.979C147.635 119.754 146.461 119.837 145.37 120.219C144.831 120.405 144.322 120.671 143.862 121.007C143.403 121.339 142.988 121.728 142.627 122.163C142.589 122.206 142.569 122.263 142.572 122.32C142.575 122.378 142.601 122.432 142.643 122.471C142.686 122.509 142.742 122.53 142.8 122.528C142.857 122.525 142.912 122.501 142.951 122.459L142.963 122.447C143.311 122.054 143.708 121.707 144.143 121.413C144.574 121.119 145.047 120.893 145.545 120.74C146.535 120.43 147.59 120.387 148.602 120.616L148.627 120.622C148.711 120.642 148.801 120.628 148.875 120.583C148.95 120.537 149.003 120.464 149.024 120.379C149.045 120.295 149.031 120.205 148.985 120.131C148.94 120.056 148.866 120.003 148.782 119.982L148.769 119.979Z" fill="#0C0C0C"/>
<path d="M129.421 127.106C136.135 124.608 138.362 119.975 139.049 116.528C139.493 114.229 139.451 111.862 138.927 109.58L138.719 109.636C139.235 111.889 139.275 114.225 138.836 116.494C138.159 119.885 135.963 124.444 129.346 126.904L129.421 127.106Z" fill="#0C0C0C"/>
<path d="M52.99 76.6352L48.5818 62.5592C48.4849 62.2499 48.3246 61.9642 48.1112 61.7202C47.8978 61.4762 47.6358 61.2793 47.3421 61.142C47.0483 61.0047 46.7292 60.9301 46.405 60.9228C46.0808 60.9155 45.7586 60.9758 45.459 61.0998C44.9129 61.3459 44.4777 61.7858 44.2379 62.3343C43.998 62.8829 43.9705 63.5009 44.1606 64.0685L45.1061 67.0868L37.7737 58.9587C36.9743 58.0406 35.4036 57.4252 34.4345 58.3894C34.0366 58.7359 33.7679 59.207 33.6724 59.7258C33.5768 60.2445 33.66 60.7803 33.9084 61.2458C33.8977 61.251 33.8878 61.2575 33.8786 61.2651C33.8727 61.2719 33.8672 61.2791 33.8623 61.2867L32.6298 59.8712C32.4014 59.6091 32.1172 59.4012 31.7982 59.2627C31.4791 59.1243 31.1332 59.0587 30.7855 59.0709C30.4379 59.083 30.0974 59.1725 29.7887 59.3329C29.4801 59.4932 29.2112 59.7204 29.0016 59.9978C28.6802 60.4411 28.5209 60.9812 28.5504 61.5279C28.5799 62.0745 28.7964 62.5944 29.1636 63.0006L29.688 63.6035C29.6778 63.6268 29.6716 63.6517 29.6699 63.6771C29.221 63.3522 28.671 63.1975 28.1184 63.2406C27.5658 63.2838 27.0465 63.522 26.6535 63.9126C26.2362 64.3526 26.0002 64.9337 25.9927 65.5398C25.9852 66.146 26.2067 66.7327 26.613 67.1828L27.9161 68.6789C27.8827 68.6708 27.8479 68.6707 27.8145 68.6786C27.7811 68.6866 27.7501 68.7023 27.7239 68.7245C27.6942 68.7525 27.6734 68.7886 27.664 68.8283C27.1838 68.6501 26.6584 68.6345 26.1685 68.7838C25.6786 68.9331 25.2513 69.2391 24.9523 69.6547C24.6471 70.0977 24.5005 70.6306 24.5363 71.1672C24.572 71.7039 24.788 72.2127 25.1492 72.6114L36.1431 85.2344C37.6813 87 39.712 88.2664 41.975 88.8714C44.238 89.4764 46.6302 89.3925 48.8451 88.6304C50.7549 87.9728 52.3329 86.597 53.2438 84.7952C54.1547 82.9935 54.3268 80.9078 53.7235 78.9812L52.99 76.6352Z" fill="#E98862"/>
<g opacity="0.2">
<path opacity="0.2" d="M41.1256 69.3275C41.0829 69.3645 41.0273 69.3832 40.9708 69.3796C40.9144 69.376 40.8617 69.3503 40.824 69.3082L33.8622 61.5693C33.8239 61.5268 33.8042 61.4709 33.8072 61.4139C33.8102 61.3568 33.8358 61.3033 33.8783 61.2651C33.9208 61.2269 33.9768 61.2071 34.0339 61.2101C34.091 61.2132 34.1445 61.2387 34.1828 61.2812L41.1454 69.0201C41.1837 69.0625 41.2035 69.1184 41.2005 69.1754C41.1975 69.2324 41.1719 69.2859 41.1295 69.3241L41.1256 69.3275Z" fill="#0C0C0C"/>
</g>
<g opacity="0.2">
<path opacity="0.2" d="M37.795 72.4904C37.7522 72.5274 37.6966 72.5461 37.6402 72.5425C37.5838 72.5388 37.531 72.5132 37.4934 72.471L29.724 63.8343C29.6858 63.7919 29.666 63.736 29.669 63.679C29.672 63.622 29.6975 63.5685 29.74 63.5303C29.7833 63.4939 29.8389 63.4753 29.8955 63.4783C29.9521 63.4814 30.0054 63.5058 30.0446 63.5467L37.8148 72.1829C37.853 72.2254 37.8728 72.2813 37.8698 72.3383C37.8669 72.3953 37.8413 72.4488 37.7989 72.487L37.795 72.4904Z" fill="#0C0C0C"/>
</g>
<g opacity="0.2">
<path opacity="0.2" d="M34.2074 75.9373C34.1646 75.9742 34.1089 75.9929 34.0525 75.9891C33.9961 75.9854 33.9434 75.9597 33.9057 75.9175L27.7084 69.03C27.6701 68.9875 27.6503 68.9316 27.6534 68.8745C27.6564 68.8175 27.682 68.764 27.7245 68.7258C27.767 68.6876 27.823 68.6678 27.8801 68.6708C27.9372 68.6739 27.9907 68.6994 28.0289 68.7419L34.2276 75.632C34.2658 75.6745 34.2855 75.7304 34.2824 75.7874C34.2794 75.8444 34.2538 75.8979 34.2113 75.936L34.2074 75.9373Z" fill="#0C0C0C"/>
</g>
<path d="M224.427 51.1611L210.317 119.23L162.27 167.734L187.497 191.213L235.134 136.86L235.42 136.539C237.099 134.608 238.27 132.289 238.827 129.791L255.001 57.7532L224.427 51.1611Z" fill="#367CFF"/>
<path d="M142.03 174.639C127.34 173.947 126.721 161.486 126.721 161.486C126.721 161.486 119.443 161.956 114.604 162.61C106.681 163.681 101.456 166.366 97.2966 170.522C93.4279 174.388 94.5254 186.45 94.5254 186.45L98.4084 267.15H187.069L191.261 186.894C191.261 186.894 196.024 176.709 187.928 168.149C182.057 161.943 166.901 161.486 160.799 161.486C160.699 161.486 162.037 175.582 142.03 174.639Z" fill="#367CFF"/>
<path d="M73.0102 132.734L57.1242 75.9568L27.084 84.6615L45.4482 145.788C46.2881 148.559 47.8827 151.041 50.0538 152.957L50.3554 153.221L98.7422 195.724L120.601 169.085L73.0102 132.734Z" fill="#367CFF"/>
<path d="M227.856 34.1422L227.129 34.6374C225.282 35.8963 223.205 36.7794 221.017 37.2361C218.829 37.6929 216.572 37.7144 214.376 37.2995C212.179 36.8846 210.086 36.0413 208.216 34.8179C206.345 33.5945 204.734 32.0149 203.475 30.1692L196.669 20.1963C196.58 20.0647 196.517 19.9168 196.484 19.761C196.452 19.6051 196.45 19.4444 196.48 19.288C196.509 19.1315 196.569 18.9824 196.657 18.8492C196.744 18.716 196.857 18.6013 196.988 18.5116L223.833 0.210739C224.099 0.0296216 224.426 -0.0385964 224.742 0.0210767C225.058 0.0807497 225.338 0.263431 225.519 0.528974L232.328 10.5037C233.587 12.3492 234.471 14.4246 234.928 16.6114C235.385 18.7982 235.407 21.0535 234.991 23.2486C234.576 25.4437 233.732 27.5355 232.508 29.4047C231.283 31.2738 229.703 32.8836 227.856 34.1422Z" fill="#0CBC8B"/>
<path d="M214.43 14.9379L218.508 17.2375C218.536 17.2532 218.567 17.2619 218.599 17.2629C218.631 17.2639 218.663 17.2571 218.691 17.2431L222.899 15.1894C222.932 15.1735 222.968 15.167 223.005 15.1708C223.041 15.1745 223.076 15.1884 223.105 15.2107C223.134 15.2331 223.156 15.2631 223.169 15.2973C223.182 15.3316 223.185 15.3688 223.178 15.4047L222.25 19.991C222.244 20.0223 222.245 20.0547 222.254 20.0854C222.263 20.116 222.279 20.1441 222.301 20.1671L225.556 23.5312C225.581 23.5575 225.599 23.5906 225.607 23.6265C225.615 23.6624 225.612 23.6998 225.6 23.7344C225.587 23.7689 225.566 23.7994 225.537 23.8222C225.508 23.8451 225.473 23.8594 225.437 23.8636L220.785 24.3993C220.753 24.4029 220.723 24.4142 220.696 24.4322C220.67 24.4502 220.648 24.4744 220.633 24.5027L218.436 28.6367C218.418 28.6691 218.392 28.696 218.361 28.7144C218.329 28.7327 218.292 28.7419 218.256 28.7408C218.219 28.7397 218.183 28.7283 218.153 28.708C218.122 28.6877 218.098 28.6593 218.082 28.6259L216.136 24.3705C216.123 24.3414 216.103 24.3159 216.077 24.2963C216.052 24.2768 216.022 24.2636 215.991 24.2581L211.38 23.448C211.344 23.4417 211.31 23.4254 211.283 23.4009C211.255 23.3764 211.235 23.3447 211.225 23.3094C211.215 23.2741 211.214 23.2367 211.224 23.2013C211.234 23.1659 211.254 23.134 211.281 23.1091L214.728 19.944C214.752 19.9224 214.769 19.8954 214.78 19.8654C214.791 19.8354 214.794 19.8033 214.79 19.7718L214.136 15.1386C214.13 15.1017 214.135 15.064 214.15 15.0297C214.164 14.9955 214.189 14.9661 214.22 14.9451C214.25 14.9241 214.287 14.9123 214.324 14.911C214.361 14.9097 214.398 14.9191 214.43 14.9379Z" fill="#FAFAFA"/>
<path d="M228.966 29.243L225.562 31.5624L224.872 32.0309L222.157 33.8827C222.157 33.8827 240.654 50.7758 239.772 71.2811L247.886 65.7506L248.576 65.282L257.377 59.2829C237.951 52.6181 228.966 29.243 228.966 29.243Z" fill="#0CBC8B"/>
<path d="M259.771 52.7461L232.811 71.1222C232.085 71.617 231.898 72.6061 232.393 73.3315L238.478 82.2476C238.973 82.973 239.963 83.16 240.689 82.6652L267.649 64.2891C268.375 63.7943 268.562 62.8052 268.067 62.0798L261.982 53.1637C261.487 52.4383 260.497 52.2514 259.771 52.7461Z" fill="#0CBC8B"/>
<path d="M208.315 38.0244C207.011 38.9157 205.494 39.4442 203.919 39.5553C202.343 39.6665 200.767 39.3565 199.351 38.657C197.935 37.9576 196.731 36.894 195.863 35.5755C194.995 34.2571 194.493 32.7314 194.411 31.1552C194.328 29.5791 194.667 28.0093 195.392 26.6074C196.117 25.2054 197.203 24.0218 198.538 23.1781C199.873 22.3345 201.409 21.8613 202.987 21.8071C204.565 21.753 206.13 22.1199 207.519 22.8701C208.861 23.594 209.994 24.6506 210.81 25.9385C211.625 27.2264 212.095 28.7021 212.175 30.224C212.255 31.7459 211.942 33.2627 211.266 34.6287C210.59 35.9948 209.574 37.1641 208.315 38.0244ZM200.028 25.9236C198.986 26.6345 198.206 27.6661 197.806 28.8612C197.406 30.0563 197.407 31.3495 197.811 32.5436C198.214 33.7377 198.997 34.7673 200.04 35.4755C201.083 36.1837 202.329 36.5316 203.589 36.4663C204.848 36.401 206.052 35.926 207.016 35.1137C207.98 34.3013 208.652 33.1963 208.93 31.9668C209.207 30.7374 209.075 29.451 208.553 28.3037C208.031 27.1564 207.148 26.2111 206.039 25.6119C205.104 25.1089 204.05 24.872 202.99 24.927C201.93 24.982 200.905 25.3267 200.028 25.9236Z" fill="#0CBC8B"/>
<path d="M238.417 17.5103C238.094 17.73 237.758 17.9283 237.409 18.1042C235.304 19.167 232.862 19.3503 230.621 18.6138C228.38 17.8774 226.524 16.2815 225.46 14.1773C224.397 12.073 224.213 9.63272 224.95 7.39328C225.687 5.15384 227.284 3.29867 229.39 2.23589C231.405 1.21944 233.732 1.00677 235.898 1.64097C238.064 2.27517 239.909 3.70879 241.056 5.65126C242.204 7.59374 242.57 9.89972 242.08 12.1018C241.59 14.3039 240.28 16.2374 238.417 17.5103ZM230.133 5.40446C229.217 6.03157 228.501 6.90914 228.07 7.9322C227.64 8.95526 227.514 10.0805 227.707 11.1733C227.9 12.2662 228.404 13.2803 229.158 14.0945C229.913 14.9087 230.886 15.4884 231.962 15.7644C233.037 16.0403 234.17 16.0008 235.223 15.6506C236.277 15.3003 237.207 14.6541 237.903 13.7893C238.599 12.9246 239.031 11.8777 239.147 10.7741C239.263 9.67051 239.059 8.55681 238.558 7.56622C238.216 6.88914 237.744 6.28603 237.169 5.79134C236.593 5.29665 235.926 4.92007 235.205 4.6831C234.484 4.44613 233.723 4.35341 232.966 4.41024C232.209 4.46707 231.471 4.67233 230.794 5.01431C230.565 5.1298 230.344 5.26013 230.133 5.40446Z" fill="#0CBC8B"/>
<path d="M236.553 45.0006C236.307 44.6639 236.179 44.2562 236.186 43.8397C236.194 43.4231 236.338 43.0205 236.596 42.6932C236.567 42.6769 236.483 42.6579 236.514 42.6071L235.08 43.3047C234.662 43.5195 234.18 43.5758 233.723 43.463C233.267 43.3503 232.866 43.0763 232.597 42.6915C232.342 42.303 232.242 41.8339 232.314 41.3754C232.386 40.9168 232.626 40.5013 232.987 40.2094C232.969 40.2038 232.96 40.1844 232.944 40.1732L232.354 40.46C231.959 40.6607 231.507 40.7189 231.074 40.6247C230.641 40.5306 230.254 40.2898 229.978 39.9432C229.81 39.7223 229.693 39.4668 229.635 39.1952C229.577 38.9235 229.581 38.6424 229.645 38.3723C229.709 38.1021 229.833 37.8495 230.007 37.6328C230.18 37.4161 230.4 37.2407 230.65 37.1192L232.01 36.4573C232.006 36.4508 231.997 36.45 231.993 36.4422C231.989 36.4345 231.993 36.422 231.99 36.4121C231.577 36.5088 231.143 36.4623 230.759 36.2802C230.375 36.0982 230.065 35.7913 229.879 35.41C229.334 34.4557 230.139 33.3684 231.019 32.9408L233.895 31.8082C234.339 31.6336 234.819 31.5714 235.292 31.6271C235.766 31.6828 236.218 31.8546 236.61 32.1273C239.997 34.4846 248.699 40.8523 245.891 42.2178L238.978 45.5793C238.567 45.766 238.105 45.8104 237.666 45.7056C237.227 45.6008 236.835 45.3527 236.553 45.0006Z" fill="#E98862"/>
<path d="M13.3838 173.208L10.1731 174.462L14.7019 186.041L17.9126 184.786L13.3838 173.208Z" fill="#367CFF"/>
<path d="M273.819 137.746L265.52 147.006L268.087 149.305L276.387 140.044L273.819 137.746Z" fill="#367CFF"/>
<path d="M235.769 179.193L233.702 181.951L243.658 189.404L245.725 186.646L235.769 179.193Z" fill="#0CBC8B"/>
<path d="M86.1381 80.7478L77.0781 89.2676L79.4406 91.7765L88.5005 83.2567L86.1381 80.7478Z" fill="#367CFF"/>
<path d="M186.487 66.2962L183.499 68.0132L189.699 78.7913L192.687 77.0743L186.487 66.2962Z" fill="#367CFF"/>
<path d="M64.5869 214.539L57.948 225.053L60.8633 226.891L67.5022 216.378L64.5869 214.539Z" fill="#0CBC8B"/>
<path d="M231.634 239.802L226.074 250.923L229.158 252.463L234.718 241.342L231.634 239.802Z" fill="#0CBC8B"/>
<path d="M276.753 210.541L273.452 211.53L277.024 223.438L280.325 222.449L276.753 210.541Z" fill="#367CFF"/>
<path d="M35.2134 243.328L33.2932 246.191L43.6309 253.115L45.551 250.253L35.2134 243.328Z" fill="#367CFF"/>
<path d="M145.589 39.5119L142.6 41.2289L148.8 52.0068L151.789 50.2898L145.589 39.5119Z" fill="#0CBC8B"/>
</svg>
