<svg width="35" height="11" viewBox="0 0 35 11" fill="none" xmlns="http://www.w3.org/2000/svg">
<path d="M2.444 0.964999V6.724C2.444 7.40867 2.62167 7.92433 2.977 8.271C3.341 8.61767 3.84367 8.791 4.485 8.791C5.135 8.791 5.63767 8.61767 5.993 8.271C6.357 7.92433 6.539 7.40867 6.539 6.724V0.964999H8.021V6.698C8.021 7.43467 7.86067 8.05867 7.54 8.57C7.21933 9.08133 6.79033 9.46267 6.253 9.714C5.71567 9.96533 5.122 10.091 4.472 10.091C3.822 10.091 3.22833 9.96533 2.691 9.714C2.16233 9.46267 1.742 9.08133 1.43 8.57C1.118 8.05867 0.962 7.43467 0.962 6.698V0.964999H2.444ZM11.4326 3.903C11.6839 3.55633 12.0263 3.27467 12.4596 3.058C12.9016 2.83267 13.3913 2.72 13.9286 2.72C14.5613 2.72 15.1333 2.87167 15.6446 3.175C16.1559 3.47833 16.5589 3.91167 16.8536 4.475C17.1483 5.02967 17.2956 5.66667 17.2956 6.386C17.2956 7.10533 17.1483 7.751 16.8536 8.323C16.5589 8.88633 16.1516 9.32833 15.6316 9.649C15.1203 9.961 14.5526 10.117 13.9286 10.117C13.3739 10.117 12.8799 10.0087 12.4466 9.792C12.0219 9.57533 11.6839 9.298 11.4326 8.96V10H9.95059V0.38H11.4326V3.903ZM15.7876 6.386C15.7876 5.892 15.6836 5.46733 15.4756 5.112C15.2763 4.748 15.0076 4.475 14.6696 4.293C14.3403 4.10233 13.9849 4.007 13.6036 4.007C13.2309 4.007 12.8756 4.10233 12.5376 4.293C12.2083 4.48367 11.9396 4.761 11.7316 5.125C11.5323 5.489 11.4326 5.918 11.4326 6.412C11.4326 6.906 11.5323 7.33933 11.7316 7.712C11.9396 8.076 12.2083 8.35333 12.5376 8.544C12.8756 8.73467 13.2309 8.83 13.6036 8.83C13.9849 8.83 14.3403 8.73467 14.6696 8.544C15.0076 8.34467 15.2763 8.05867 15.4756 7.686C15.6836 7.31333 15.7876 6.88 15.7876 6.386ZM18.2671 6.386C18.2671 5.66667 18.4145 5.02967 18.7091 4.475C19.0125 3.92033 19.4198 3.49133 19.9311 3.188C20.4511 2.876 21.0231 2.72 21.6471 2.72C22.2105 2.72 22.7001 2.83267 23.1161 3.058C23.5408 3.27467 23.8788 3.54767 24.1301 3.877V2.837H25.6251V10H24.1301V8.934C23.8788 9.272 23.5365 9.55367 23.1031 9.779C22.6698 10.0043 22.1758 10.117 21.6211 10.117C21.0058 10.117 20.4425 9.961 19.9311 9.649C19.4198 9.32833 19.0125 8.88633 18.7091 8.323C18.4145 7.751 18.2671 7.10533 18.2671 6.386ZM24.1301 6.412C24.1301 5.918 24.0261 5.489 23.8181 5.125C23.6188 4.761 23.3545 4.48367 23.0251 4.293C22.6958 4.10233 22.3405 4.007 21.9591 4.007C21.5778 4.007 21.2225 4.10233 20.8931 4.293C20.5638 4.475 20.2951 4.748 20.0871 5.112C19.8878 5.46733 19.7881 5.892 19.7881 6.386C19.7881 6.88 19.8878 7.31333 20.0871 7.686C20.2951 8.05867 20.5638 8.34467 20.8931 8.544C21.2311 8.73467 21.5865 8.83 21.9591 8.83C22.3405 8.83 22.6958 8.73467 23.0251 8.544C23.3545 8.35333 23.6188 8.076 23.8181 7.712C24.0261 7.33933 24.1301 6.906 24.1301 6.412ZM31.2767 2.72C31.8227 2.72 32.308 2.837 32.7327 3.071C33.166 3.305 33.504 3.65167 33.7467 4.111C33.998 4.57033 34.1237 5.125 34.1237 5.775V10H32.6547V5.996C32.6547 5.35467 32.4943 4.865 32.1737 4.527C31.853 4.18033 31.4153 4.007 30.8607 4.007C30.306 4.007 29.864 4.18033 29.5347 4.527C29.214 4.865 29.0537 5.35467 29.0537 5.996V10H27.5717V0.38H29.0537V3.669C29.305 3.36567 29.6213 3.13167 30.0027 2.967C30.3927 2.80233 30.8173 2.72 31.2767 2.72Z" fill="white"/>
</svg>
