<svg width="277" height="217" viewBox="0 0 277 217" fill="none" xmlns="http://www.w3.org/2000/svg">
<g clip-path="url(#clip0_362_3180)">
<path opacity="0.08" d="M64.1034 202.329C116.097 236.687 191.02 205.313 237.307 163.628C281.732 123.62 303.336 19.7321 223.161 2.72668C189.778 -4.3539 174.597 3.0304 150.011 17.0924C130.163 28.4452 102.891 23.0715 83.1672 12.8951C55.2773 -1.49383 20.9056 19.4347 6.19026 50.9957C-11.8371 89.6731 10.1118 166.65 64.1034 202.329Z" fill="white"/>
<path opacity="0.1" d="M64.1034 202.329C116.097 236.687 191.02 205.313 237.307 163.628C281.732 123.62 303.336 19.7321 223.161 2.72668C189.778 -4.3539 174.597 3.0304 150.011 17.0924C130.163 28.4452 102.891 23.0715 83.1672 12.8951C55.2773 -1.49383 20.9056 19.4347 6.19026 50.9957C-11.8371 89.6731 10.1118 166.65 64.1034 202.329Z" fill="#367CFF"/>
<path d="M73.3749 33.4936C73.3749 33.4936 72.2389 50.481 68.4047 56.642C57.3649 74.3846 54.1666 94.3439 65.2217 104.772C76.2769 115.201 146.79 115.345 152.132 91.3599C156.629 71.1675 146.978 68.9961 144.63 52.3398C143.567 44.8025 140.644 28.9978 140.644 28.9978" fill="#0A0A0A"/>
<path d="M133.88 87.8482C133.759 87.8323 132.408 110.169 106.371 108.221C88.3468 106.876 81.92 87.8149 81.5073 87.8149C83.4506 87.4031 86.723 86.8046 87.5859 86.3459C90.4245 84.8257 93.9349 83.2443 94.8513 77.7509C95.3803 74.5871 94.4809 58.3874 94.7592 55.1825L122.429 61.3377C122.042 68.1029 119.337 83.7874 128.82 86.5631C130.396 87.0224 132.096 87.4442 133.88 87.8482Z" fill="#E98862"/>
<path opacity="0.5" d="M122.815 80.1533C122.381 78.7613 122.102 77.3262 121.982 75.8737C121.678 72.5589 121.739 69.221 122.163 65.9193C116.541 65.1628 111.244 62.8496 106.874 59.2427C106.36 61.1336 103.534 69.3964 104.317 71.1934C105.794 74.5902 112.742 80.1533 122.815 80.1533Z" fill="#0C0C0C"/>
<path d="M119.237 73.194C108.329 74.2486 94.2149 69.8973 91.2912 55.4198L88.6532 42.3565C85.7295 27.8789 90.9891 14.6116 104.666 11.868C118.344 9.12607 130.937 18.8104 133.861 33.288L135.029 39.073C136.151 44.6265 138.699 71.3173 119.237 73.194Z" fill="#E98862"/>
<path d="M126.996 55.8801C123.452 57.6759 119.408 58.2438 115.504 57.4941C115.369 57.4687 115.229 57.4822 115.102 57.533C114.974 57.5838 114.863 57.6697 114.783 57.7809C114.702 57.892 114.655 58.0236 114.647 58.1605C114.639 58.2973 114.67 58.4336 114.736 58.5535C115.9 60.5978 118.661 64.0901 123.397 62.6664C126.455 61.7468 127.611 58.611 128.04 56.6716C128.069 56.5374 128.059 56.3978 128.012 56.269C127.964 56.1403 127.881 56.0277 127.771 55.9446C127.661 55.8615 127.53 55.8113 127.393 55.7999C127.256 55.7884 127.118 55.8163 126.996 55.8801Z" fill="white"/>
<path d="M127.218 40.1702C128.164 40.1702 128.93 39.406 128.93 38.4633C128.93 37.5207 128.164 36.7565 127.218 36.7565C126.272 36.7565 125.505 37.5207 125.505 38.4633C125.505 39.406 126.272 40.1702 127.218 40.1702Z" fill="#0C0C0C"/>
<path d="M110.761 43.0419C111.707 43.0419 112.474 42.2777 112.474 41.335C112.474 40.3924 111.707 39.6282 110.761 39.6282C109.815 39.6282 109.049 40.3924 109.049 41.335C109.049 42.2777 109.815 43.0419 110.761 43.0419Z" fill="#0C0C0C"/>
<path opacity="0.1" d="M112.304 54.2226C114.099 54.0091 115.427 52.7723 115.27 51.4601C115.112 50.1478 113.53 49.2571 111.735 49.4705C109.94 49.684 108.612 50.9208 108.769 52.2331C108.926 53.5453 110.509 54.4361 112.304 54.2226Z" fill="#0C0C0C"/>
<path opacity="0.1" d="M131.272 48.9761C131.43 50.2865 133.015 51.176 134.81 50.9651C135.12 50.928 135.426 50.8589 135.722 50.7589C135.805 49.1965 135.81 47.6932 135.765 46.3017C135.266 46.1776 134.748 46.1474 134.239 46.2125C132.444 46.424 131.116 47.66 131.272 48.9761Z" fill="#0C0C0C"/>
<path opacity="0.5" d="M123.34 53.0263L123.366 53.0221C123.92 52.907 124.468 52.7614 125.006 52.586C125.809 52.3181 126.858 51.8784 126.714 51.1544C126.548 50.3292 122.481 41.8834 122.02 40.9248C122.001 40.882 121.973 40.8434 121.939 40.8114C121.904 40.7794 121.864 40.7547 121.82 40.7385C121.775 40.7224 121.728 40.7153 121.681 40.7176C121.634 40.7199 121.588 40.7315 121.546 40.7518C121.503 40.7722 121.466 40.8008 121.434 40.8359C121.403 40.8711 121.379 40.9122 121.364 40.9566C121.35 41.0011 121.344 41.0481 121.347 41.0949C121.351 41.1417 121.364 41.1873 121.385 41.229C123.119 44.8257 125.912 50.7389 126.024 51.2946C125.936 51.5535 124.604 52.0592 123.229 52.3355C123.136 52.3503 123.054 52.401 122.999 52.4764C122.945 52.5518 122.922 52.6458 122.937 52.7376C122.952 52.8294 123.003 52.9116 123.079 52.966C123.154 53.0204 123.249 53.0427 123.341 53.0279L123.34 53.0263Z" fill="#0C0C0C"/>
<path d="M77.7399 47.0457L90.0018 44.6586C99.2644 40.7982 101.892 24.7098 101.892 24.7098C101.892 24.7098 113.324 35.5595 140.644 28.9983C140.644 28.9983 134.71 -9.01203 94.3683 2.52792C81.3609 6.24801 72.147 19.4616 73.5173 36.9642C74.4776 49.2276 77.7399 47.0457 77.7399 47.0457Z" fill="#0A0A0A"/>
<path d="M93.0313 59.6603C88.8749 60.494 84.6105 56.738 83.7724 52.5945C82.9344 48.451 85.8443 45.4913 90.0008 44.6576L92.7033 47.0035L96.6042 58.9421L93.0313 59.6603Z" fill="#E98862"/>
<path d="M124.969 34.1891C126.008 33.4561 127.225 33.0109 128.493 32.8988C129.13 32.8384 129.772 32.8739 130.398 33.0043C131.03 33.1328 131.644 33.3399 132.224 33.6207L132.242 33.6291C132.307 33.6594 132.381 33.6628 132.448 33.6387C132.515 33.6145 132.57 33.5647 132.6 33.5002C132.631 33.4357 132.634 33.3619 132.61 33.2949C132.586 33.2279 132.536 33.1732 132.471 33.143C131.856 32.8195 131.203 32.5745 130.526 32.4137C129.845 32.2487 129.143 32.1866 128.443 32.2297C127.026 32.3073 125.656 32.7626 124.475 33.5479C124.431 33.5777 124.394 33.6158 124.364 33.6601C124.335 33.7043 124.315 33.7539 124.305 33.8059C124.295 33.8579 124.296 33.9113 124.307 33.9631C124.317 34.0149 124.338 34.0641 124.368 34.1079C124.398 34.1517 124.436 34.1891 124.481 34.2182C124.525 34.2472 124.575 34.2673 124.627 34.2771C124.679 34.287 124.733 34.2866 124.785 34.2758C124.837 34.2651 124.886 34.2442 124.93 34.2144L124.94 34.2076L124.969 34.1891Z" fill="#0C0C0C"/>
<path d="M113.765 35.7319C112.373 35.4564 110.932 35.558 109.592 36.0262C108.93 36.2535 108.306 36.5786 107.74 36.9906C107.177 37.3973 106.668 37.873 106.224 38.4064C106.177 38.4592 106.153 38.5282 106.157 38.5986C106.16 38.669 106.192 38.7351 106.244 38.7826C106.296 38.8302 106.365 38.8553 106.436 38.8525C106.507 38.8498 106.573 38.8195 106.622 38.7681L106.636 38.7534C107.064 38.2727 107.551 37.8475 108.086 37.4879C108.615 37.1283 109.195 36.8504 109.807 36.6637C111.023 36.2837 112.317 36.2312 113.56 36.5113L113.59 36.5187C113.695 36.5438 113.804 36.5267 113.896 36.4711C113.988 36.4155 114.053 36.3259 114.078 36.2221C114.104 36.1182 114.087 36.0086 114.031 35.9174C113.975 35.8262 113.885 35.7608 113.781 35.7356L113.765 35.7319Z" fill="#0C0C0C"/>
<path d="M90.0103 44.4582C98.2529 41.3999 100.988 35.7272 101.83 31.5057C102.376 28.6902 102.325 25.7923 101.681 22.9977L101.426 23.0673C102.06 25.8257 102.109 28.6856 101.57 31.464C100.738 35.6165 98.0418 41.1985 89.9177 44.2115L90.0103 44.4582Z" fill="#0C0C0C"/>
<path d="M166.343 101.629L200.053 190.96L172.075 183.073L235.705 135.774L258.374 166.667L193.864 212.765C191.623 214.363 189.055 215.444 186.345 215.933C183.634 216.421 180.849 216.303 178.19 215.588C175.53 214.874 173.063 213.579 170.967 211.799C168.87 210.018 167.196 207.796 166.066 205.293L165.886 204.877L127.162 117.588L166.343 101.629Z" fill="#367CFF"/>
<path d="M105.886 102.635C87.8486 101.788 87.0893 86.5293 87.0893 86.5293C87.0893 86.5293 78.1521 87.1051 72.2111 87.9061C62.4845 89.218 56.0678 92.5052 50.9611 97.5941C46.211 102.328 43.3191 107.45 46.3793 140.153C48.5951 163.832 47.0353 215.915 47.0353 215.915H155.894C155.894 215.915 162.421 147.648 163.331 136.989C165.068 116.641 172.18 105.172 162.239 94.6903C155.031 87.0888 136.42 86.5293 128.93 86.5309C128.808 86.5298 130.45 103.789 105.886 102.635Z" fill="#367CFF"/>
<path d="M210.53 106.034C203.764 94.644 188.451 93.2762 177.023 100.022L176.299 100.471L175.813 99.6908C168.819 88.4387 154.56 82.5699 143.27 89.5408C137.848 92.8884 133.983 98.2453 132.525 104.433C131.066 110.621 132.134 117.133 135.492 122.536L158.728 159.118C159.482 160.305 160.673 161.149 162.046 161.467C163.418 161.786 164.861 161.554 166.064 160.821L202.94 138.343C208.144 134.974 211.839 129.731 213.254 123.709C214.668 117.688 213.692 111.355 210.53 106.034Z" fill="#367CFF"/>
<path opacity="0.6" d="M210.53 106.034C203.764 94.644 188.451 93.2762 177.023 100.022L176.299 100.471L175.813 99.6908C168.819 88.4387 154.56 82.5699 143.27 89.5408C137.848 92.8884 133.983 98.2453 132.525 104.433C131.066 110.621 132.134 117.133 135.492 122.536L158.728 159.118C159.482 160.305 160.673 161.149 162.046 161.467C163.418 161.786 164.861 161.554 166.064 160.821L202.94 138.343C208.144 134.974 211.839 129.731 213.254 123.709C214.668 117.688 213.692 111.355 210.53 106.034Z" fill="white"/>
<path d="M171.572 129.589C159.574 122.382 144.666 128.741 137.436 140.698L136.987 141.475L136.145 140.993C124.005 134.027 107.818 135.681 100.829 147.781C97.4725 153.591 96.5694 160.492 98.3183 166.966C100.067 173.44 104.325 178.956 110.155 182.301L150.086 204.701C151.381 205.427 152.911 205.617 154.346 205.229C155.781 204.841 157.004 203.906 157.753 202.626L180.726 163.377C183.869 157.656 184.671 150.945 182.965 144.648C181.259 138.352 177.177 132.956 171.572 129.589Z" fill="#367CFF"/>
<path opacity="0.5" d="M171.572 129.589C159.574 122.382 144.666 128.741 137.436 140.698L136.987 141.475L136.145 140.993C124.005 134.027 107.818 135.681 100.829 147.781C97.4725 153.591 96.5694 160.492 98.3183 166.966C100.067 173.44 104.325 178.956 110.155 182.301L150.086 204.701C151.381 205.427 152.911 205.617 154.346 205.229C155.781 204.841 157.004 203.906 157.753 202.626L180.726 163.377C183.869 157.656 184.671 150.945 182.965 144.648C181.259 138.352 177.177 132.956 171.572 129.589Z" fill="white"/>
<path d="M161.111 146.543C161.115 146.473 161.147 146.408 161.2 146.362C161.253 146.315 161.322 146.292 161.392 146.296C161.462 146.301 161.528 146.333 161.574 146.385C161.621 146.438 161.644 146.507 161.64 146.577L159.426 181.813C159.422 181.876 159.395 181.936 159.351 181.981C159.306 182.027 159.246 182.055 159.183 182.06C159.171 182.06 159.158 182.06 159.145 182.06C159.075 182.055 159.01 182.023 158.963 181.971C158.917 181.919 158.893 181.85 158.898 181.78" fill="#0C0C0C"/>
<path d="M243.633 143.381C243.661 142.993 243.767 142.616 243.946 142.271C244.125 141.926 244.373 141.622 244.674 141.375C244.975 141.129 245.324 140.947 245.698 140.839C246.072 140.731 246.464 140.701 246.851 140.749C247.596 140.869 248.267 141.266 248.729 141.86C249.191 142.454 249.41 143.201 249.341 143.95L249.065 147.799L254.735 137.43C255.431 136.112 257.131 134.937 258.564 135.813C259.769 136.446 262.04 136.101 262.877 137.687C262.891 137.693 267.269 153.137 266.623 154.363C263.884 159.552 254.673 163.01 248.818 162.43L239.604 161.51L243.633 143.381Z" fill="#E98862"/>
<g opacity="0.1">
<path opacity="0.1" d="M243.633 143.381C243.661 142.993 243.767 142.616 243.946 142.271C244.125 141.926 244.373 141.622 244.674 141.375C244.975 141.129 245.324 140.947 245.698 140.839C246.072 140.731 246.464 140.701 246.851 140.749C247.596 140.869 248.267 141.266 248.729 141.86C249.191 142.454 249.41 143.201 249.341 143.95L249.065 147.799L254.735 137.43C255.431 136.112 257.131 134.937 258.564 135.813C259.769 136.446 262.04 136.101 262.877 137.687C262.891 137.693 267.269 153.137 266.623 154.363C263.884 159.552 254.673 163.01 248.818 162.43L239.604 161.51L243.633 143.381Z" fill="#0C0C0C"/>
</g>
<path d="M253.724 131.642C243.142 118.302 223.407 119.184 210.022 129.73L209.175 130.425L208.422 129.515C197.576 116.386 178.404 111.36 165.231 122.172C162.099 124.743 159.506 127.904 157.599 131.474C155.692 135.043 154.51 138.953 154.119 142.978C153.729 147.003 154.137 151.066 155.322 154.934C156.507 158.801 158.444 162.399 161.024 165.52L196.924 208.118C198.089 209.5 199.752 210.37 201.554 210.54C203.357 210.71 205.154 210.167 206.559 209.028L249.633 174.083C255.677 168.901 259.477 161.592 260.24 153.682C261.002 145.773 258.667 137.876 253.724 131.642Z" fill="#0CBC8B"/>
<path d="M254.2 150.824C254.199 150.314 254.366 149.817 254.674 149.41C254.983 149.003 255.416 148.708 255.909 148.569C255.891 148.531 255.823 148.453 255.889 148.426L253.959 148.086C253.388 147.998 252.869 147.707 252.497 147.267C252.125 146.827 251.925 146.268 251.935 145.692C251.963 145.125 252.201 144.587 252.604 144.185C253.007 143.783 253.545 143.543 254.115 143.514C254.101 143.496 254.106 143.47 254.099 143.448L253.305 143.307C252.768 143.222 252.277 142.955 251.915 142.55C251.553 142.145 251.342 141.629 251.318 141.087C251.311 140.747 251.379 140.41 251.518 140.099C251.657 139.788 251.863 139.512 252.122 139.291C252.381 139.069 252.686 138.908 253.015 138.818C253.344 138.728 253.689 138.712 254.025 138.772L255.854 139.095C255.854 139.085 255.846 139.077 255.847 139.067C255.849 139.057 255.863 139.047 255.866 139.036C255.385 138.834 254.987 138.476 254.737 138.019C254.487 137.563 254.4 137.035 254.491 136.523C254.638 135.185 256.224 134.688 257.407 134.896L261.081 135.846C261.648 135.992 262.17 136.275 262.6 136.671C263.031 137.066 263.357 137.562 263.549 138.113C265.212 142.884 269.257 155.451 265.481 154.785L256.188 153.144C255.645 153.032 255.155 152.743 254.795 152.323C254.436 151.903 254.226 151.376 254.2 150.824Z" fill="#E98862"/>
<path d="M141.968 168.627L156.402 157.708C156.719 157.469 157.083 157.297 157.47 157.205C157.858 157.113 158.26 157.102 158.652 157.174C159.043 157.245 159.416 157.397 159.745 157.62C160.075 157.843 160.354 158.131 160.566 158.468C160.937 159.101 161.059 159.848 160.908 160.565C160.758 161.283 160.345 161.919 159.751 162.35L156.655 164.691L169.78 161.782C171.233 161.433 173.241 161.932 173.526 163.582C173.678 164.21 173.611 164.871 173.337 165.456C173.063 166.042 172.598 166.518 172.018 166.806C172.025 166.819 172.031 166.832 172.034 166.846C172.035 166.857 172.035 166.868 172.034 166.879L174.275 166.341C174.691 166.242 175.123 166.236 175.541 166.324C175.958 166.412 176.351 166.592 176.69 166.851C177.03 167.109 177.307 167.44 177.501 167.819C177.696 168.198 177.803 168.615 177.815 169.041C177.821 169.711 177.596 170.363 177.177 170.887C176.758 171.412 176.171 171.777 175.515 171.922L174.562 172.152C174.556 172.182 174.545 172.211 174.528 172.238C175.208 172.232 175.868 172.468 176.39 172.902C176.912 173.337 177.262 173.942 177.377 174.61C177.482 175.345 177.304 176.093 176.88 176.703C176.456 177.313 175.816 177.741 175.089 177.902L172.72 178.471C172.76 178.486 172.794 178.511 172.822 178.543C172.85 178.574 172.869 178.612 172.879 178.653C172.889 178.702 172.884 178.753 172.865 178.799C173.473 178.962 174.01 179.319 174.394 179.815C174.777 180.311 174.987 180.92 174.99 181.547C174.98 182.205 174.747 182.841 174.329 183.351C173.911 183.861 173.333 184.215 172.688 184.357L152.698 189.155C149.902 189.827 146.968 189.65 144.273 188.649C141.578 187.647 139.244 185.866 137.572 183.534C136.129 181.524 135.53 179.032 135.902 176.588C136.273 174.144 137.586 171.941 139.562 170.446L141.968 168.627Z" fill="#E98862"/>
<g opacity="0.2">
<path opacity="0.2" d="M159.042 169.75C159.058 169.817 159.1 169.875 159.159 169.911C159.218 169.947 159.288 169.959 159.356 169.944L171.834 167.161C171.902 167.146 171.962 167.104 171.999 167.045C172.037 166.986 172.05 166.914 172.034 166.846C172.019 166.778 171.977 166.718 171.917 166.681C171.858 166.643 171.786 166.631 171.718 166.646L159.24 169.429C159.206 169.437 159.174 169.451 159.145 169.471C159.117 169.491 159.093 169.517 159.074 169.546C159.055 169.575 159.043 169.608 159.037 169.642C159.031 169.677 159.032 169.712 159.04 169.746L159.042 169.75Z" fill="#0C0C0C"/>
</g>
<g opacity="0.2">
<path opacity="0.2" d="M160.121 175.269C160.138 175.336 160.18 175.394 160.239 175.43C160.298 175.466 160.369 175.478 160.436 175.463L174.361 172.357C174.395 172.349 174.427 172.335 174.456 172.315C174.485 172.295 174.509 172.27 174.527 172.24C174.546 172.211 174.559 172.178 174.565 172.144C174.57 172.109 174.569 172.074 174.562 172.04C174.544 171.973 174.502 171.915 174.443 171.878C174.384 171.841 174.313 171.828 174.244 171.841L160.319 174.947C160.285 174.955 160.253 174.969 160.224 174.989C160.196 175.009 160.171 175.034 160.153 175.064C160.134 175.093 160.122 175.126 160.116 175.16C160.11 175.194 160.111 175.229 160.119 175.263L160.121 175.269Z" fill="#0C0C0C"/>
</g>
<g opacity="0.2">
<path opacity="0.2" d="M161.256 181.252C161.273 181.319 161.315 181.377 161.374 181.413C161.433 181.449 161.504 181.461 161.571 181.446L172.682 178.968C172.75 178.952 172.81 178.91 172.847 178.851C172.885 178.792 172.897 178.721 172.882 178.653C172.867 178.584 172.825 178.525 172.765 178.487C172.706 178.45 172.634 178.438 172.566 178.453L161.455 180.931C161.421 180.939 161.389 180.953 161.361 180.973C161.332 180.993 161.308 181.019 161.289 181.048C161.271 181.077 161.258 181.11 161.252 181.144C161.246 181.179 161.247 181.214 161.255 181.248L161.256 181.252Z" fill="#0C0C0C"/>
</g>
<path d="M148.166 194.752L56.4301 215.535C53.3826 215.866 50.2997 215.488 47.4233 214.432C44.5469 213.375 41.9552 211.669 39.8516 209.447C37.748 207.224 36.1896 204.547 35.2989 201.623C34.4082 198.7 34.2092 195.611 34.7177 192.598L45.2157 108.441C46.0887 103.269 48.9874 98.6548 53.2739 95.6131C57.5605 92.5714 62.8839 91.3514 68.0731 92.2215C73.2622 93.0916 77.892 95.9804 80.944 100.253C83.9959 104.525 85.22 109.83 84.347 115.002L79.2917 175.238L143.027 160.863L148.166 194.752Z" fill="#367CFF"/>
<path d="M66.3942 177.604C66.324 177.61 66.2547 177.587 66.2015 177.541C66.1482 177.495 66.1154 177.43 66.1103 177.36C66.1052 177.29 66.1282 177.221 66.1741 177.168C66.2201 177.115 66.2854 177.082 66.3556 177.077L79.1387 174.357C79.1731 174.352 79.2082 174.353 79.2421 174.361C79.276 174.369 79.3079 174.384 79.3359 174.405C79.364 174.425 79.3876 174.451 79.4053 174.481C79.423 174.511 79.4345 174.544 79.4392 174.579C79.4495 174.648 79.4319 174.718 79.3902 174.774C79.3486 174.831 79.2863 174.868 79.217 174.878L66.4339 177.599C66.4208 177.602 66.4075 177.604 66.3942 177.604Z" fill="#0C0C0C"/>
<path d="M59.1824 215.915C59.1123 215.919 59.0432 215.896 58.9903 215.85C58.9375 215.804 58.9053 215.738 58.9007 215.668C58.8961 215.598 58.9196 215.53 58.966 215.477C59.0124 215.424 59.0779 215.392 59.148 215.388L147.59 194.627L142.579 161.249L79.224 174.882C79.1829 174.887 79.1412 174.883 79.102 174.87C79.0629 174.856 79.0275 174.833 78.9988 174.804C78.97 174.774 78.9486 174.738 78.9364 174.699C78.9241 174.659 78.9213 174.617 78.9282 174.577L82.4821 140.16C82.4873 140.125 82.4994 140.092 82.5177 140.063C82.536 140.033 82.5601 140.008 82.5885 139.987C82.6169 139.967 82.6491 139.953 82.6832 139.945C82.7173 139.938 82.7525 139.937 82.7868 139.944C82.856 139.955 82.9177 139.994 82.9584 140.051C82.9991 140.108 83.0154 140.178 83.0038 140.247L79.5118 174.311L142.702 160.67C142.736 160.66 142.772 160.658 142.807 160.662C142.842 160.667 142.875 160.678 142.906 160.696C142.936 160.714 142.963 160.738 142.984 160.766C143.005 160.794 143.02 160.826 143.029 160.86L148.168 194.751C148.184 194.818 148.174 194.888 148.139 194.947C148.104 195.006 148.047 195.049 147.981 195.068L59.2168 215.913C59.2054 215.914 59.1939 215.915 59.1824 215.915Z" fill="#0C0C0C"/>
<path d="M262.027 62.398C258.536 56.5181 250.629 55.8121 244.73 59.2933L244.356 59.5248L244.105 59.1219C240.494 53.3132 233.133 50.2839 227.305 53.8821C224.507 55.6103 222.512 58.3754 221.759 61.5694C221.006 64.7634 221.556 68.1246 223.29 70.9139L235.285 89.7991C235.674 90.4117 236.289 90.8473 236.998 91.0117C237.707 91.1762 238.452 91.0564 239.072 90.6781L258.109 79.0744C260.794 77.3352 262.701 74.629 263.431 71.5213C264.162 68.4136 263.659 65.1448 262.027 62.398Z" fill="#0CBC8B"/>
<path opacity="0.2" d="M262.027 62.398C258.536 56.5181 250.629 55.8121 244.73 59.2933L244.356 59.5248L244.105 59.1219C240.494 53.3132 233.133 50.2839 227.305 53.8821C224.507 55.6103 222.512 58.3754 221.759 61.5694C221.006 64.7634 221.556 68.1246 223.29 70.9139L235.285 89.7991C235.674 90.4117 236.289 90.8473 236.998 91.0117C237.707 91.1762 238.452 91.0564 239.072 90.6781L258.109 79.0744C260.794 77.3352 262.701 74.629 263.431 71.5213C264.162 68.4136 263.659 65.1448 262.027 62.398Z" fill="white"/>
<path d="M209.894 6.94242C206.722 5.09212 202.833 6.81059 200.977 9.97175L200.861 10.1769L200.639 10.0535C197.43 8.26699 193.19 8.75527 191.397 11.9518C190.971 12.7121 190.699 13.5488 190.597 14.414C190.495 15.2791 190.565 16.1558 190.803 16.994C191.041 17.8322 191.442 18.6154 191.984 19.2989C192.526 19.9824 193.198 20.5528 193.961 20.9775L204.512 26.7193C204.855 26.9056 205.257 26.9502 205.632 26.8436C206.007 26.7369 206.325 26.4875 206.517 26.1493L212.411 15.7752C213.215 14.2638 213.403 12.5007 212.934 10.8546C212.465 9.20853 211.376 7.80678 209.894 6.94242Z" fill="#367CFF"/>
<path opacity="0.5" d="M209.894 6.94242C206.722 5.09212 202.833 6.81059 200.977 9.97175L200.861 10.1769L200.639 10.0535C197.43 8.26699 193.19 8.75527 191.397 11.9518C190.971 12.7121 190.699 13.5488 190.597 14.414C190.495 15.2791 190.565 16.1558 190.803 16.994C191.041 17.8322 191.442 18.6154 191.984 19.2989C192.526 19.9824 193.198 20.5528 193.961 20.9775L204.512 26.7193C204.855 26.9056 205.257 26.9502 205.632 26.8436C206.007 26.7369 206.325 26.4875 206.517 26.1493L212.411 15.7752C213.215 14.2638 213.403 12.5007 212.934 10.8546C212.465 9.20853 211.376 7.80678 209.894 6.94242Z" fill="white"/>
</g>
<defs>
<clipPath id="clip0_362_3180">
<rect width="277" height="217" fill="white"/>
</clipPath>
</defs>
</svg>
